<svg xmlns="http://www.w3.org/2000/svg" width="285" height="16" viewBox="0 0 285 16">
    <g fill="none" fill-rule="evenodd" stroke="#FFF">
        <path fill="#BE402D" d="M.5.5h15v15H.5z"/>
        <path fill="#F3B271" d="M60.233.5h15v15h-15z"/>
        <path fill="#FAEAA6" d="M119.967.5h15v15h-15z"/>
        <path fill="#83BF6A" d="M179.7.5h15v15h-15z"/>
        <path fill="#BE402D" d="M30.367.5h15v15h-15z"/>
        <path fill="#F3B271" d="M90.1.5h15v15h-15z"/>
        <path fill="#C0DE86" d="M149.833.5h15v15h-15z"/>
        <path fill="#83BF6A" d="M209.567.5h15v15h-15z"/>
        <path fill="#2D6836" d="M254.367.5h15v15h-15z"/>
        <path fill="#BE402D" d="M15.433.5h15v15h-15z"/>
        <path fill="#F3B271" d="M75.167.5h15v15h-15z"/>
        <path fill="#FAEAA6" d="M134.9.5h15v15h-15z"/>
        <path fill="#83BF6A" d="M194.633.5h15v15h-15z"/>
        <path fill="#2D6836" d="M239.433.5h15v15h-15z"/>
        <path fill="#D96544" d="M45.3.5h15v15h-15z"/>
        <path fill="#F8DB83" d="M105.033.5h15v15h-15z"/>
        <path fill="#C0DE86" d="M164.767.5h15v15h-15z"/>
        <path fill="#4D9B57" d="M224.5.5h15v15h-15z"/>
        <path fill="#2D6836" d="M269.3.5h15v15h-15z"/>
    </g>
</svg>
