<svg xmlns="http://www.w3.org/2000/svg" width="762" height="333" viewBox="0 0 762 333">
    <defs>
        <linearGradient id="a" x1="-6.126%" x2="89.902%" y1="38.305%" y2="38.305%">
            <stop offset="0%" stop-color="#F3F4F8"/>
            <stop offset="100%" stop-color="#E2E5EE"/>
        </linearGradient>
        <linearGradient id="b" x1="-3.232%" x2="129.816%" y1="100%" y2="100%">
            <stop offset="0%" stop-color="#CBD5FF"/>
            <stop offset="100%" stop-color="#17B363"/>
        </linearGradient>
        <linearGradient id="c" x1="-3.232%" x2="129.816%" y1="100%" y2="100%">
            <stop offset="0%" stop-color="#8C9AD6"/>
            <stop offset="100%" stop-color="#17B363"/>
        </linearGradient>
    </defs>
    <g fill="none" fill-rule="evenodd">
        <path stroke="#E2E5EE" d="M51.904 0v306.79H762"/>
        <text fill="#969DB6" font-family="Helvetica" font-size="12" transform="translate(-1)">
            <tspan x="32.918" y="305">0</tspan>
        </text>
        <text fill="#969DB6" font-family="Helvetica" font-size="12" transform="translate(-1)">
            <tspan x="0" y="12.316">10000</tspan>
        </text>
        <text fill="#969DB6" font-family="Helvetica" font-size="12" transform="translate(-1)">
            <tspan x="79.945" y="329.684">possible data </tspan>
        </text>
        <text fill="#969DB6" font-family="Helvetica" font-size="12" transform="translate(-1)">
            <tspan x="228.077" y="329.684">possible data </tspan>
        </text>
        <text fill="#969DB6" font-family="Helvetica" font-size="12" transform="translate(-1)">
            <tspan x="673.65" y="329.684">possible data </tspan>
        </text>
        <text fill="#969DB6" font-family="Helvetica" font-size="12" transform="translate(-1)">
            <tspan x="525.518" y="329.684">possible data </tspan>
        </text>
        <text fill="#969DB6" font-family="Helvetica" font-size="12" transform="translate(-1)">
            <tspan x="376.21" y="329.684">possible data </tspan>
        </text>
        <path fill="url(#a)" d="M52.904 81.757C70.93 61.43 82.536 48.816 87.723 43.914c7.78-7.353 9.919 22.78 21.978 22.78C121.76 66.695 133.595 0 141.34 0c7.745 0 14.529 66.695 25.593 66.695s16.685-67.8 33.301-7.039c6.407 23.429 10.036 31.975 14.897 31.975 4.86 0 16.365-29.525 20.388-31.975 6.548-3.988 32.844 52.112 39.11 52.112 6.266 0 11.57-45.073 20.455-45.073 8.887 0 26.87 51.791 32.9 51.791 6.029 0 30.397-43.686 40.864-74.572 10.467-30.886 13.004-10.161 24.966 29.753 11.963 39.914 11.963 68.43 19.124 68.43s28.834-86.429 35.521-86.429c6.687 0 20.193 62.818 30.278 62.818 10.084 0 25.932-58.83 33.455-58.83s27.598 74.932 37.569 74.932c9.97 0 20.442-28.406 28.615-28.406 8.173 0 23.511 72.374 28.992 72.374 5.49 0 15.679-43.968 21.339-43.968 5.66 0 46.64 117.63 129.59 172.201 0-.187-452.702 0-452.702 0s-17.998-79.055-25.118-79.055c-7.12 0-21.628 37.169-27.63 37.169-6.002 0-19.392-92.798-25.127-92.798-5.736 0-19.31 61.174-27.486 61.174-8.176 0-12.27-98.691-19.194-98.691-6.925 0-21.16 43.968-28.592 48.801-7.433 4.833-12.002-41.293-18.74-41.293-6.74 0-25.334 80.627-31.074 80.627-5.74 0-19.004-80.627-22.692-80.627-2.458 0-11.079 17.068-25.862 51.202" opacity=".781" transform="translate(-1)"/>
        <path fill="url(#b)" d="M52.904 93.877S72.043 77.464 80.54 75.74c15.794-3.207 19.515 5.79 30.614 2.64 11.1-3.151 17.133-17.256 27.7-17.256 10.565 0 15.541 21.23 25.983 21.23s12.569-1.864 21.508-6.614c8.94-4.75 13.224 24.62 26.07 27.753 12.845 3.134 18.185-9.615 24.735-9.615 6.551 0 3.498 21.695 21.746 35.123 18.249 13.428 25.253 3.325 37.993-1.908 12.74-5.232 16.455 38.273 30.534 38.273 14.08 0 26.144-40.31 39.778-40.31s17.577 51.45 40.675 51.45c23.098 0 28.425-24.769 41.516-32.9 13.09-8.13 15.563 48.92 37.236 56.692 21.672 7.771 21.672-23.793 33.25-23.793 11.58 0 24.937 43.134 65.462 70.29 27.016 18.105 80.52 38.103 160.514 59.995l-197.628-.655c-56-49.01-104.727-75.308-146.18-78.895-62.18-5.38-91.423-10.273-109.36-26.942-17.935-16.668-26.905 21.673-33.79 8.565-6.884-13.107-19.438-52.734-26.747-52.734-7.308 0-10.13 9.237-19.735 9.237-9.604 0-16.727-43.182-26.069-47.034-9.341-3.852-19.64 15.479-27.63 22.94-7.989 7.46-5.972-32.808-23.13-32.808-17.158 0-19.816 32.807-30.75 32.807-10.935 0-12.777-25.435-24.895-22.939-8.079 1.665-17.09 10.09-27.035 25.274V93.877z" opacity=".334" transform="translate(-1)"/>
        <path stroke="url(#c)" stroke-linecap="round" stroke-linejoin="round" stroke-width="3" d="M54.08 114.547c14.018 0 25.173-30.08 44.635-15.58 17.197 12.813 33.675-24.82 63.209 3.653 12.371 11.927 24.93-7.08 38.797 11.927 9.252 12.682 20.132 31.003 41.928 28.299 15.238-1.891 27.208 20.707 39.942 27.09 34.389 17.237 54.589 24.184 108.165 27.247 107.54 6.147 162.857 107.067 299.353 107.256" transform="translate(-1)"/>
    </g>
</svg>
