<svg xmlns="http://www.w3.org/2000/svg" width="80" height="80" viewBox="0 0 80 80">
    <g fill="#FFF" fill-rule="nonzero">
        <path d="M40 0C17.938 0 0 17.938 0 40s17.938 40 40 40 40-17.938 40-40S62.062 0 40 0zm0 76.923C19.646 76.923 3.077 60.353 3.077 40 3.077 19.646 19.647 3.077 40 3.077c20.354 0 36.923 16.57 36.923 36.923 0 20.354-16.57 36.923-36.923 36.923z"/>
        <path d="M58.846 23.6L35.2 50.2 20.954 38.8a1.557 1.557 0 0 0-2.17.246 1.53 1.53 0 0 0 .247 2.17l15.384 12.307c.293.215.631.323.97.323.43 0 .846-.17 1.153-.523l24.616-27.692c.57-.631.508-1.6-.123-2.17a1.54 1.54 0 0 0-2.185.139z"/>
    </g>
</svg>
