<svg xmlns="http://www.w3.org/2000/svg" width="15" height="15" viewBox="0 0 15 15">
    <path fill="#000" fill-rule="nonzero" stroke="#000" d="M13.929 14.07l-3.788-3.94a5.336 5.336 0 0 0 1.565-3.777A5.359 5.359 0 0 0 6.353 1 5.359 5.359 0 0 0 1 6.353a5.359 5.359 0 0 0 5.353 5.353 5.328 5.328 0 0 0 3.412-1.232l3.796 3.949a.253.253 0 0 0 .36.007.255.255 0 0 0 .008-.36zm-7.576-2.874A4.849 4.849 0 0 1 1.51 6.353 4.849 4.849 0 0 1 6.353 1.51a4.849 4.849 0 0 1 4.843 4.843 4.849 4.849 0 0 1-4.843 4.843z" opacity=".5"/>
</svg>
