<?xml version="1.0" encoding="utf-8"?>
<!-- Generator: Adobe Illustrator 21.0.0, SVG Export Plug-In . SVG Version: 6.00 Build 0)  -->
<svg version="1.1" id="Layer_1" xmlns="http://www.w3.org/2000/svg" xmlns:xlink="http://www.w3.org/1999/xlink" x="0px" y="0px"
	 viewBox="0 0 1024 1024" style="enable-background:new 0 0 1024 1024;" xml:space="preserve">
<style type="text/css">
	.st0{fill:#0A5D6C;}
</style>
<title></title>
<g id="icomoon-ignore">
</g>
<path class="st0" d="M38.6,260.8h946.7c21.3,0,38.6-17.3,38.6-38.6s-17.3-38.6-38.6-38.6H38.6C17.3,183.5,0,200.9,0,222.2
	S17.3,260.8,38.6,260.8L38.6,260.8z"/>
<path class="st0" d="M38.6,550.6h946.7c21.3,0,38.6-17.3,38.6-38.6s-17.3-38.6-38.6-38.6H38.6C17.3,473.4,0,490.7,0,512
	S17.3,550.6,38.6,550.6L38.6,550.6z"/>
<path class="st0" d="M38.6,840.5h946.7c21.3,0,38.6-17.3,38.6-38.6s-17.3-38.6-38.6-38.6H38.6C17.3,763.2,0,780.5,0,801.8
	S17.3,840.5,38.6,840.5L38.6,840.5z"/>
</svg>
