<svg xmlns="http://www.w3.org/2000/svg" width="27" height="27" viewBox="0 0 27 27">
    <g fill="#FFCF35" fill-rule="nonzero">
        <path d="M19.787 3.522h-.6c-.38 0-.765.036-1.179.113C16.596 1.376 14.118 0 11.384 0 7.093 0 3.601 3.423 3.601 7.631c0 .08.002.158.005.236C1.501 8.495 0 10.411 0 12.621c0 2.751 2.28 4.99 5.082 4.99h15.006c.686 0 1.357-.136 1.922-.378 2.967-.959 4.96-3.638 4.96-6.667 0-3.884-3.222-7.044-7.183-7.044zm1.61 12.061c-.418.178-.86.267-1.31.267H5.083c-1.831 0-3.321-1.448-3.321-3.23 0-1.607 1.248-2.975 2.904-3.182a.882.882 0 0 0 .762-.996 5.819 5.819 0 0 1-.065-.811c0-3.237 2.702-5.87 6.022-5.87 2.303 0 4.37 1.255 5.395 3.275.188.37.606.559 1.01.452.532-.14.976-.205 1.398-.205h.6c2.99 0 5.422 2.37 5.422 5.283 0 2.263-1.503 4.268-3.811 5.017zM7.87 19.422a.876.876 0 0 0-1.098.588l-1.76 5.841a.88.88 0 0 0 1.686.51l1.76-5.842a.88.88 0 0 0-.589-1.097zM13.739 19.422a.877.877 0 0 0-1.097.588l-1.76 5.841a.88.88 0 0 0 1.685.51l1.761-5.842a.88.88 0 0 0-.589-1.097zM19.609 19.422a.877.877 0 0 0-1.098.588l-1.76 5.841a.88.88 0 0 0 1.686.51l1.76-5.842a.88.88 0 0 0-.588-1.097z"/>
    </g>
</svg>
