<!-- Generated by IcoMoon.io -->
<svg version="1.1" xmlns="http://www.w3.org/2000/svg" width="1024" height="1024" viewBox="0 0 1024 1024">
<title></title>
<g id="icomoon-ignore">
</g>
<path fill="#000" d="M680.585 512l305.951-305.951c24.976-24.976 37.463-56.195 37.463-81.171 0-31.22-12.488-62.439-37.463-81.171-24.976-31.22-56.195-43.707-81.171-43.707-31.22 0-62.439 12.488-81.171 37.463l-312.195 305.951-312.195-305.951c-18.732-24.976-49.951-37.463-81.171-37.463s-62.439 12.488-81.171 37.463c-24.976 18.732-37.463 49.951-37.463 81.171s12.488 62.439 37.463 81.171l305.951 305.951-305.951 305.951c-24.976 31.22-37.463 62.439-37.463 93.659s12.488 62.439 37.463 81.171c24.976 24.976 56.195 37.463 81.171 37.463 31.22 0 62.439-12.488 81.171-37.463l305.951-305.951 305.951 305.951c24.976 24.976 56.195 37.463 81.171 37.463 31.22 0 62.439-12.488 81.171-37.463v0c24.976-24.976 37.463-56.195 37.463-81.171 0-31.22-12.488-62.439-37.463-81.171l-293.463-312.195z"></path>
</svg>
