<?xml version="1.0" encoding="utf-8"?>
<!-- Generator: Adobe Illustrator 21.0.0, SVG Export Plug-In . SVG Version: 6.00 Build 0)  -->
<svg version="1.1" id="Layer_1" xmlns="http://www.w3.org/2000/svg" xmlns:xlink="http://www.w3.org/1999/xlink" x="0px" y="0px"
	 viewBox="0 0 1024 1024" style="enable-background:new 0 0 1024 1024;" xml:space="preserve">
<style type="text/css">
	.st0{fill:#FFFFFF;}
</style>
<title></title>
<g id="icomoon-ignore">
</g>
<path class="st0" d="M680.6,512l306-306c25-25,37.5-56.2,37.5-81.2c0-31.2-12.5-62.4-37.5-81.2C961.6,12.5,930.3,0,905.4,0
	c-31.2,0-62.4,12.5-81.2,37.5L512,343.4l-312.2-306c-18.7-25-50-37.5-81.2-37.5S56.2,12.5,37.5,37.5C12.5,56.2,0,87.4,0,118.6
	s12.5,62.4,37.5,81.2l306,306l-306,306C12.5,842.9,0,874.1,0,905.4s12.5,62.4,37.5,81.2c25,25,56.2,37.5,81.2,37.5
	c31.2,0,62.4-12.5,81.2-37.5l306-306l306,306c25,25,56.2,37.5,81.2,37.5c31.2,0,62.4-12.5,81.2-37.5l0,0c25-25,37.5-56.2,37.5-81.2
	c0-31.2-12.5-62.4-37.5-81.2L680.6,512L680.6,512z"/>
</svg>
