<svg xmlns="http://www.w3.org/2000/svg" width="28" height="28" viewBox="0 0 28 28">
    <g fill="#FFF" fill-rule="nonzero">
        <path d="M20.52 3.652h-.622c-.395 0-.794.038-1.223.117C17.211 1.427 14.641 0 11.806 0c-4.45 0-8.071 3.55-8.071 7.914 0 .082.002.163.005.245C1.556 8.81 0 10.797 0 13.089c0 2.852 2.364 5.174 5.27 5.174h15.562c.712 0 1.407-.141 1.993-.392 3.077-.994 5.144-3.772 5.144-6.913 0-4.029-3.341-7.306-7.449-7.306zm1.67 12.508a3.46 3.46 0 0 1-1.358.277H5.27c-1.899 0-3.444-1.502-3.444-3.349 0-1.667 1.295-3.086 3.011-3.3a.914.914 0 0 0 .791-1.034 6.035 6.035 0 0 1-.067-.84c0-3.357 2.801-6.088 6.245-6.088 2.388 0 4.531 1.301 5.594 3.396a.911.911 0 0 0 1.048.47c.552-.146 1.012-.214 1.45-.214h.622c3.1 0 5.623 2.458 5.623 5.48 0 2.346-1.559 4.426-3.953 5.202zM8.16 20.142a.909.909 0 0 0-1.137.61l-1.826 6.057a.913.913 0 0 0 1.749.528l1.826-6.058a.913.913 0 0 0-.611-1.137zM14.248 20.142a.91.91 0 0 0-1.138.61l-1.826 6.057a.913.913 0 0 0 1.749.528l1.826-6.058a.913.913 0 0 0-.611-1.137zM20.335 20.142a.91.91 0 0 0-1.138.61l-1.826 6.057a.913.913 0 0 0 1.749.528l1.826-6.058a.913.913 0 0 0-.611-1.137z"/>
    </g>
</svg>
