<?xml version="1.0" encoding="utf-8"?>
<!-- Generator: Adobe Illustrator 21.0.0, SVG Export Plug-In . SVG Version: 6.00 Build 0)  -->
<svg version="1.1" id="Layer_1" xmlns="http://www.w3.org/2000/svg" xmlns:xlink="http://www.w3.org/1999/xlink" x="0px" y="0px"
	 viewBox="0 0 33 29" style="enable-background:new 0 0 33 29;" xml:space="preserve">
<style type="text/css">
	.st0{fill:#FFFFFF;}
</style>
<g>
	<path class="st0" d="M13.3,3.1C10.4,0.4,4.7,0,0.8,0C0.3,0,0,0.4,0,0.8c0,0,0,0,0,0c0,3.9,0.3,9.3,3.2,12.1
		c1.2,1.2,3.1,1.7,4.9,1.7c2,0,4-0.6,5.1-1.7C15.4,10.8,15.8,5.6,13.3,3.1z M12.2,11.8c-1.6,1.5-6.1,1.8-7.9,0
		C1.9,9.6,1.5,5,1.5,1.5c3.7,0,8.4,0.4,10.7,2.7C14.1,6,13.8,10.3,12.2,11.8L12.2,11.8z M32.2,2.9c-4,0-9.6,0.3-12.5,3.1
		c-2.5,2.4-2.1,7.6,0,9.7c1.1,1.1,3.1,1.7,5.1,1.7c1.8,0,3.7-0.5,4.9-1.7C32.7,12.9,33,7.5,33,3.6C33,3.2,32.6,2.9,32.2,2.9
		C32.2,2.9,32.2,2.9,32.2,2.9L32.2,2.9z M28.7,14.7c-1.9,1.8-6.3,1.5-7.9,0s-1.9-5.8,0-7.7c2.3-2.2,7.1-2.6,10.7-2.7
		C31.4,7.9,31,12.4,28.7,14.7z"/>
	<path class="st0" d="M26.8,9.2c-0.2-0.4-0.7-0.5-1.1-0.3c-5.7,2.6-8.6,7.2-9.8,11.8c-1.6-9.9-6.2-13-8.1-14.2
		C7.6,6.2,7.4,6.1,7.3,6C7,5.8,6.5,5.8,6.2,6c-0.3,0.3-0.3,0.7,0,1c0,0,0,0,0,0C6.4,7.2,6.6,7.4,7,7.6c2.2,1.4,8,5.3,8,20.6
		c0,0.4,0.3,0.7,0.7,0.7c0.4,0,0.7-0.3,0.7-0.7c0-6.2,1.7-14.4,9.9-18.1c0,0,0.1-0.1,0.1-0.1C26.9,9.9,27,9.5,26.8,9.2L26.8,9.2z"/>
</g>
</svg>
