<?xml version="1.0" encoding="utf-8"?><svg xmlns="http://www.w3.org/2000/svg" width="500" height="50" viewbox="0 0 500 100"><rect x="0" y="0" width="31.25" height="100" fill="#4b3627"/><rect x="31.25" y="0" width="31.25" height="100" fill="#df923d"/><rect x="62.5" y="0" width="31.25" height="100" fill="#f1b555"/><rect x="93.75" y="0" width="31.25" height="100" fill="#fcd163"/><rect x="125" y="0" width="31.25" height="100" fill="#99b718"/><rect x="156.25" y="0" width="31.25" height="100" fill="#74a901"/><rect x="187.5" y="0" width="31.25" height="100" fill="#66a000"/><rect x="218.75" y="0" width="31.25" height="100" fill="#529400"/><rect x="250" y="0" width="31.25" height="100" fill="#3e8601"/><rect x="281.25" y="0" width="31.25" height="100" fill="#207401"/><rect x="312.5" y="0" width="31.25" height="100" fill="#056201"/><rect x="343.75" y="0" width="31.25" height="100" fill="#004c00"/><rect x="375" y="0" width="31.25" height="100" fill="#023b01"/><rect x="406.25" y="0" width="31.25" height="100" fill="#012e01"/><rect x="437.5" y="0" width="31.25" height="100" fill="#011d01"/><rect x="468.75" y="0" width="31.25" height="100" fill="#011301"/></svg>
