<svg xmlns="http://www.w3.org/2000/svg" width="173" height="50" viewBox="0 0 173 50">
    <defs>
        <linearGradient id="a" x1="122.927%" x2="-25.819%" y1="48.991%" y2="59.504%">
            <stop offset="0%" stop-color="#0FD856"/>
            <stop offset="100%" stop-color="#01A796"/>
            <stop offset="100%" stop-color="#01A697"/>
        </linearGradient>
        <linearGradient id="b" x1="-40.769%" x2="71.72%" y1="58.009%" y2="49.006%">
            <stop offset="0%" stop-color="#0FD856"/>
            <stop offset="100%" stop-color="#01A697"/>
        </linearGradient>
    </defs>
    <g fill="none" fill-rule="evenodd">
        <path fill="url(#a)" d="M25 0h123c13.807 0 25 11.193 25 25v25H25C11.193 50 0 38.807 0 25S11.193 0 25 0z" transform="matrix(1 0 0 -1 0 50)"/>
        <path fill="url(#b)" d="M20.74.034C1.538 24.516 9.733 30.308 45.325 17.408 103.306-3.606 138.89 6.622 138.89 30.652c0 9.815 10.288 15.603 21.914 12.004 2.71-.839 5.165-1.908 7.363-3.207-4.55 6.2-11.889 10.224-20.168 10.224H25c-13.807 0-25-11.193-25-25C0 12.318 8.962 2.056 20.74.034z"/>
    </g>
</svg>
