<?xml version="1.0" encoding="utf-8"?>
<!-- Generator: Adobe Illustrator 21.0.0, SVG Export Plug-In . SVG Version: 6.00 Build 0)  -->
<svg version="1.1" id="Layer_1" xmlns="http://www.w3.org/2000/svg" xmlns:xlink="http://www.w3.org/1999/xlink" x="0px" y="0px"
	 viewBox="0 0 92 23" style="enable-background:new 0 0 92 23;" xml:space="preserve">
<style type="text/css">
	.st0{filter:url(#Adobe_OpacityMaskFilter);}
	.st1{fill:#FFFFFF;}
	.st2{mask:url(#b);fill:#FFFFFF;}
	.st3{filter:url(#Adobe_OpacityMaskFilter_1_);}
	.st4{mask:url(#d);fill:#FFFFFF;}
</style>
<g>
	<g>
		<defs>
			<filter id="Adobe_OpacityMaskFilter" filterUnits="userSpaceOnUse" x="0" y="0.1" width="19.9" height="22.9">
				<feColorMatrix  type="matrix" values="1 0 0 0 0  0 1 0 0 0  0 0 1 0 0  0 0 0 1 0"/>
			</filter>
		</defs>
		<mask maskUnits="userSpaceOnUse" x="0" y="0.1" width="19.9" height="22.9" id="b">
			<g class="st0">
				<path id="a" class="st1" d="M0,0.1h19.9V23H0V0.1z"/>
			</g>
		</mask>
		<path class="st2" d="M13.5,19.8c-0.8,0.9-1.8,1.5-3,1.6c-1.5,0.2-3-0.4-4-1.6c1.4-0.2,2.6-1,3.5-2.1
			C10.8,18.8,12.1,19.5,13.5,19.8 M14.1,18.9c-1.5-0.1-2.8-0.9-3.6-2.2l0,0c0.7-1.4,0.8-3,0.3-4.5c1.3,0.2,2.4,1,3.1,2.2
			C14.7,15.8,14.7,17.5,14.1,18.9 M14.1,4.4c0.6,1.3,0.6,2.9,0,4.2c-1.6,0.1-3.1,0.8-4.1,2c-0.4-1.2-0.3-2.6,0.3-3.8
			c0.8-1.4,2.1-2.3,3.7-2.4L14.1,4.4 M6.6,3.5C7.3,2.6,8.5,2,9.7,1.9c1.5-0.2,2.9,0.4,3.9,1.6c-1.4,0.2-2.7,1-3.5,2.1
			C9.2,4.5,7.9,3.8,6.6,3.5 M6,4.4c1.4,0.1,2.7,0.9,3.5,2.1C8.7,8,8.6,9.6,9.2,11.1c-1.2-0.3-2.3-1.1-3-2.2C5.4,7.5,5.3,5.8,6,4.4
			 M1.8,11.7L1.8,11.7C2.6,10.4,4,9.6,5.4,9.5c0.8,1.4,2.2,2.2,3.7,2.5c-0.8,1-2.1,1.6-3.4,1.6C4.1,13.7,2.7,13,1.8,11.7 M10.8,11.3
			c0.8-1,2.1-1.6,3.4-1.6c1.6-0.1,3.1,0.7,3.9,2c0,0,0,0,0,0c-0.8,1.2-2.1,2-3.6,2.1C13.7,12.4,12.3,11.5,10.8,11.3 M5.9,18.9
			c-0.6-1.3-0.6-2.9,0-4.2c1.6-0.1,3-0.8,4-2c0.4,1.2,0.3,2.6-0.3,3.8C8.8,17.9,7.4,18.8,5.9,18.9 M1.5,7.2c0.6-1.5,1.9-2.5,3.4-2.7
			l0,0C4.4,5.8,4.4,7.3,5,8.6c-1.4,0.2-2.7,0.9-3.6,2C0.9,9.5,1,8.3,1.5,7.2 M18.6,10.7c-0.9-1.1-2.1-1.8-3.5-2
			c0.5-1.3,0.6-2.8,0.1-4.2c1.1,0.2,2.1,0.9,2.8,1.8C18.9,7.6,19.1,9.2,18.6,10.7 M18.5,16.1c-0.6,1.5-1.9,2.5-3.4,2.7
			c0.5-1.3,0.5-2.8-0.1-4.1c1.4-0.2,2.7-0.9,3.6-2.1C19,13.8,19,15,18.5,16.1 M1.3,12.6c0.9,1.1,2.2,1.9,3.6,2
			c-0.5,1.3-0.6,2.8-0.1,4.2c-1.1-0.2-2.2-0.9-2.9-1.9C1,15.6,0.8,14,1.3,12.6 M0,6.5v10.2c0,0.5,0.2,0.9,0.6,1.1l8.3,4.9
			c0.6,0.4,1.4,0.4,2,0l8.3-4.9c0.4-0.2,0.6-0.7,0.6-1.1V6.5c0-0.5-0.2-0.9-0.6-1.1l-8.7-5.1C10.2,0,9.7,0,9.3,0.3L0.6,5.4
			C0.2,5.6,0,6,0,6.5"/>
	</g>
	<path class="st1" d="M31.1,11.3c1.5,0,2.3-0.7,2.3-1.9c0-1.2-0.8-1.9-2.3-1.9h-1.5v3.9H31.1L31.1,11.3z M28,17V6h3.2
		C33.5,6,35,7.3,35,9.4s-1.5,3.4-3.8,3.4h-1.6V17H28z M39,10.4c-1.4,0-2.5,1.1-2.5,2.6c0,1.5,1.1,2.6,2.5,2.6c1.4,0,2.5-1.1,2.5-2.6
		C41.5,11.5,40.4,10.4,39,10.4 M39,17c-2.3,0-4-1.7-4-4s1.7-4,4-4c1,0,1.9,0.3,2.6,0.9V9.1H43v7.8h-1.4v-0.8
		C40.8,16.7,39.9,17,39,17 M49,17c-2.3,0-4-1.7-4-4s1.7-4,4-4c1.5,0,2.4,0.7,3,1.2l0.1,0.1l-1,1L51,11.3c-0.4-0.4-1.1-0.9-2-0.9
		c-1.4,0-2.5,1.1-2.5,2.6c0,1.5,1.1,2.6,2.5,2.6c0.9,0,1.6-0.5,2-0.9l0.1-0.1l1,1l-0.1,0.1C51.4,16.3,50.4,17,49,17 M58.5,17v-4.7
		c0-1.1-0.8-1.8-1.9-1.8c-1,0-1.8,0.5-2,1.5l0,5H53V6h1.5v3.9c0.7-0.7,1.6-0.8,2.3-0.8c1.9,0,3.1,1.3,3.1,3.2V17
		C60,17,58.5,17,58.5,17z M80.6,17v-4.7c0-1.1-0.6-1.9-1.6-1.9c-0.9,0-1.5,0.5-1.7,1.5c0,0.1,0,0.2,0,0.3V17h-1.4v-4.7
		c0-1.1-0.6-1.9-1.6-1.9c-0.8,0-1.4,0.5-1.7,1.4l0,5.2H71V9.1h1.4v0.7C73.1,9.1,74,9,74.4,9c0.9,0,1.8,0.4,2.2,1.2
		c0.8-1,1.9-1.2,2.5-1.2c1.7,0,2.8,1.3,2.8,3.2V17H80.6z M65,10.4c-1.4,0-2.5,1.1-2.5,2.6c0,1.5,1.1,2.6,2.5,2.6s2.5-1.1,2.5-2.6
		C67.5,11.5,66.4,10.4,65,10.4 M65,17c-2.3,0-4-1.7-4-4s1.7-4,4-4c1,0,1.9,0.3,2.6,0.9V9.1H69v7.8h-1.4v-0.8
		C66.8,16.7,65.9,17,65,17"/>
	<g transform="translate(83 9)">
		<defs>
			<filter id="Adobe_OpacityMaskFilter_1_" filterUnits="userSpaceOnUse" x="0.4" y="0.2" width="8.2" height="7.7">
				<feColorMatrix  type="matrix" values="1 0 0 0 0  0 1 0 0 0  0 0 1 0 0  0 0 0 1 0"/>
			</filter>
		</defs>
		<mask maskUnits="userSpaceOnUse" x="0.4" y="0.2" width="8.2" height="7.7" id="d">
			<g class="st3">
				<path id="c" class="st1" d="M0.4,0.2h8.2v7.7H0.4L0.4,0.2z"/>
			</g>
		</mask>
		<path class="st4" d="M4.5,1.5C3.1,1.5,2,2.6,2,4c0,1.4,1.1,2.5,2.5,2.5C6,6.5,7.1,5.4,7.1,4C7.1,2.6,6,1.5,4.5,1.5 M4.5,7.9
			C2.2,7.9,0.4,6.2,0.4,4c0-2.2,1.8-3.9,4.1-3.9c1,0,1.9,0.3,2.6,0.9V0.3h1.5v7.5H7.2V7C6.4,7.6,5.5,7.9,4.5,7.9"/>
	</g>
</g>
</svg>
