<svg xmlns="http://www.w3.org/2000/svg" width="14" height="14" viewBox="0 0 14 14">
    <g fill="#4478D7" fill-rule="nonzero">
        <path d="M7 0C3.14 0 0 3.14 0 7s3.14 7 7 7 7-3.14 7-7-3.14-7-7-7zm0 12.727A5.734 5.734 0 0 1 1.273 7 5.734 5.734 0 0 1 7 1.273 5.734 5.734 0 0 1 12.727 7 5.734 5.734 0 0 1 7 12.727z"/>
        <path d="M7 3.111a.779.779 0 0 0 0 1.556.778.778 0 0 0 0-1.556zM7 5.444c-.43 0-.778.305-.778.681v4.083c0 .376.348.68.778.68.43 0 .778-.304.778-.68V6.125c0-.376-.348-.68-.778-.68z"/>
    </g>
</svg>
