<svg xmlns="http://www.w3.org/2000/svg" width="32" height="36" viewBox="0 0 32 36">
    <path fill="#17B363" fill-rule="nonzero" d="M31.492 18.144c0 2.58-.038 5.121 0 7.7 0 1.079-.417 1.81-1.366 2.35-3.984 2.31-7.968 4.581-11.876 7.007-1.707 1.04-3.225 1.078-4.97.038-3.946-2.425-7.968-4.735-11.99-7.046C.417 27.616 0 26.884 0 25.806v-15.4c0-.963.341-1.695 1.176-2.157C5.653 5.631 10.168 2.974 14.684.318c.72-.424 1.441-.424 2.162 0 4.477 2.618 8.955 5.274 13.47 7.893.834.462 1.214 1.155 1.214 2.117-.038 2.618-.038 5.198-.038 7.816zm-15.518-3.85c0-3.696-2.505-6.738-6.033-7.315-.57-.077-.873.038-1.063.616-.53 1.655-.569 3.31-.038 5.005.19.577.456.847 1.139.924 1.593.154 3.035.809 4.325 1.81.455.346.835 1.155 1.29.924.493-.27.38-1.155.38-1.771v-.193zm1.328 4.62c2.39 3.427 8.916 3.196 11.003-.308.19-.308.19-.577-.038-.847-1.252-1.54-2.846-2.502-4.819-2.733-.303-.039-.569-.039-.759.23-1.29 1.887-3.149 3.08-5.387 3.658zm-8.765-3.888c-1.935.077-3.756.885-5.236 2.58-.342.423-.417.73-.038 1.154 1.176 1.386 2.618 2.272 4.401 2.618.57.116.91-.038 1.29-.539 1.139-1.501 2.656-2.54 4.477-3.08.228-.077.57 0 .608-.346.037-.27-.266-.424-.456-.578-1.366-1.155-2.96-1.77-5.046-1.81zm.038 11.512a9.28 9.28 0 0 0 .38 2.117c.189.732.568.963 1.29.77 1.63-.423 3.035-1.232 4.135-2.54.38-.424.455-.81.228-1.387-.721-1.77-.873-3.619-.418-5.467.19-.809 0-.886-.683-.655-2.77.963-4.932 3.966-4.932 7.162zm14.342-.193c0-.962-.152-1.886-.531-2.81-.152-.347-.342-.578-.759-.616-2.049-.231-3.832-1.04-5.274-2.542-.341-.346-.493-.423-.683.154-1.062 3.812 2.011 8.51 5.881 8.933.493.038.759-.116.91-.578a7.49 7.49 0 0 0 .456-2.54zm-.152-16.517c0-.655-.152-1.502-.493-2.349-.19-.423-.417-.539-.873-.462-1.745.347-3.187 1.194-4.325 2.541-.304.347-.455.693-.228 1.194.797 1.81.835 3.696.456 5.66-.038.23-.228.539.038.693.227.154.493-.039.72-.116 2.77-1.04 4.705-3.889 4.705-7.161zm6.526 6.584c1.632-3.427-1.404-8.971-4.932-9.28-.57-.038-.418.232-.342.578.418 1.694.456 3.427-.114 5.12-.151.424-.113.617.38.694.873.115 1.707.462 2.466.886.987.5 1.783 1.193 2.542 2.002zm-13.62 17.133c2.048 0 3.68-.693 5.045-1.963.38-.347.456-.578-.151-.732a8.017 8.017 0 0 1-4.288-2.657c-.303-.346-.569-.423-.91-.038a8.838 8.838 0 0 1-4.288 2.657c-.607.154-.607.385-.152.808a7.111 7.111 0 0 0 4.743 1.925zM2.162 19.915c-.531 1.232-.607 2.349-.304 3.774.607 2.695 2.163 4.581 4.743 5.544.455.192.91.27.683-.54-.455-1.732-.38-3.426.19-5.12.113-.385.075-.577-.38-.654-1.897-.424-3.528-1.425-4.932-3.004zm27.66 2.195c-.039-.424-.039-1.001-.19-1.579-.152-.5-.266-.693-.721-.23-1.252 1.308-2.732 2.156-4.477 2.464-.418.077-.57.23-.38.693.57 1.655.57 3.31.19 5.005-.038.23-.266.5-.038.693.228.154.493-.039.72-.116 2.809-.885 4.857-3.734 4.895-6.93zM15.67 2.936c-1.897 0-3.453.616-4.78 1.77-.19.155-.494.309-.456.578.038.308.38.27.607.308 1.67.424 3.073 1.31 4.212 2.619.417.462.569.346.948-.039a8.305 8.305 0 0 1 4.174-2.541c.72-.193.531-.424.152-.77-1.442-1.27-3.112-1.887-4.857-1.925zM7.323 7.17c-3.794.693-6.564 5.275-5.464 8.74.152.5.304.578.683.193 1.176-1.271 2.656-2.041 4.326-2.426.341-.077.607-.193.455-.616-.607-1.925-.531-3.85 0-5.89z"/>
</svg>
