<!-- Generated by IcoMoon.io -->
<svg version="1.1" xmlns="http://www.w3.org/2000/svg" width="1024" height="1024" viewBox="0 0 1024 1024">
<title></title>
<g id="icomoon-ignore">
</g>
<path fill="#000" d="M38.642 260.83h946.717c21.33 0 38.642-17.311 38.642-38.642s-17.311-38.642-38.642-38.642h-946.717c-21.33 0-38.642 17.311-38.642 38.642s17.311 38.642 38.642 38.642z"></path>
<path fill="#000" d="M38.642 550.642h946.717c21.33 0 38.642-17.311 38.642-38.642s-17.311-38.642-38.642-38.642h-946.717c-21.33 0-38.642 17.311-38.642 38.642s17.311 38.642 38.642 38.642z"></path>
<path fill="#000" d="M38.642 840.453h946.717c21.33 0 38.642-17.311 38.642-38.642s-17.311-38.642-38.642-38.642h-946.717c-21.33 0-38.642 17.311-38.642 38.642s17.311 38.642 38.642 38.642z"></path>
</svg>
