<svg xmlns="http://www.w3.org/2000/svg" width="28" height="24" viewBox="0 0 28 24">
    <g fill="#FF6E5D" fill-rule="nonzero">
        <path d="M11.253 2.6C8.807.3 4.023.032.635.032.285.032 0 .3 0 .631c0 3.188.282 7.692 2.727 9.993 1.032.972 2.615 1.406 4.183 1.406 1.704 0 3.393-.513 4.343-1.407 1.821-1.714 2.155-5.996 0-8.023zm-.899 7.178c-1.36 1.28-5.136 1.498-6.727 0-1.974-1.857-2.315-5.632-2.352-8.546 3.096.035 7.105.357 9.08 2.215 1.59 1.497 1.358 5.053 0 6.331zM27.354 2.399c-3.387 0-8.172.265-10.617 2.567-2.156 2.027-1.822 6.309 0 8.023.95.893 2.637 1.406 4.341 1.406 1.569 0 3.15-.433 4.184-1.405 2.444-2.301 2.727-6.805 2.727-9.993 0-.33-.284-.598-.635-.598zm-2.993 9.744c-1.591 1.498-5.368 1.28-6.727 0-1.359-1.278-1.591-4.834 0-6.331 1.974-1.858 5.984-2.18 9.08-2.215-.037 2.916-.38 6.69-2.353 8.546z"/>
        <path d="M22.765 7.576c-.15-.3-.58-.403-.896-.264-4.874 2.157-7.269 5.918-8.357 9.784-1.345-8.22-5.238-10.727-6.89-11.79-.205-.133-.365-.23-.454-.313a.664.664 0 0 0-.899 0 .574.574 0 0 0 0 .846c.126.117.343.265.637.453 1.86 1.198 6.803 4.381 6.803 17.068 0 .33.285.598.636.598.35 0 .635-.268.635-.597 0-5.126 1.463-11.884 8.43-14.965 0-.002.103-.047.103-.047.317-.141.402-.474.252-.773z"/>
    </g>
</svg>
