<?xml version="1.0" encoding="utf-8"?>
<!-- Generator: Adobe Illustrator 21.0.0, SVG Export Plug-In . SVG Version: 6.00 Build 0)  -->
<svg version="1.1" id="Layer_1" xmlns="http://www.w3.org/2000/svg" xmlns:xlink="http://www.w3.org/1999/xlink" x="0px" y="0px"
	 viewBox="0 0 512 512" style="enable-background:new 0 0 512 512;" xml:space="preserve">
<style type="text/css">
	.st0{fill:#FFFFFF;}
</style>
<path class="st0" d="M298.7,106.7c0,58.9-47.8,106.7-106.7,106.7S85.3,165.6,85.3,106.7S133.1,0,192,0S298.7,47.8,298.7,106.7z"/>
<path class="st0" d="M202.7,373.3c0-45.5,18-86.7,47.1-117.3H101.3C45.5,256,0,301.5,0,357.3V432c0,8.8,7.2,16,16,16h204.1
	C209,425.4,202.7,400.1,202.7,373.3z"/>
<path class="st0" d="M373.3,234.7c-76.5,0-138.7,62.2-138.7,138.7c0,76.5,62.2,138.7,138.7,138.7c76.5,0,138.7-62.2,138.7-138.7
	C512,296.9,449.8,234.7,373.3,234.7z M420.4,420.4c-4.2,4.2-9.6,6.3-15.1,6.3s-10.9-2.1-15.1-6.3l-32-32c-4-4-6.2-9.4-6.2-15.1V320
	c0-11.8,9.6-21.3,21.3-21.3c11.8,0,21.3,9.5,21.3,21.3v44.5l25.7,25.8C428.8,398.6,428.8,412.1,420.4,420.4z"/>
</svg>
